<?xml version="1.0" encoding="UTF-8"?>
<svg id="Capa_1" data-name="Capa 1" xmlns="http://www.w3.org/2000/svg" xmlns:xlink="http://www.w3.org/1999/xlink" viewBox="0 0 2467.75 526.51">
  <defs>
    <style>
      .cls-1 {
        fill: #cc4748;
      }

      .cls-1, .cls-2, .cls-3, .cls-4, .cls-5, .cls-6, .cls-7, .cls-8, .cls-9 {
        stroke-width: 0px;
      }

      .cls-2 {
        fill: #2e3c66;
      }

      .cls-3 {
        fill: #468bbc;
      }

      .cls-4 {
        fill: none;
      }

      .cls-5 {
        fill: #934f8c;
      }

      .cls-6 {
        fill: #dab706;
      }

      .cls-7 {
        fill: #eacb02;
      }

      .cls-10 {
        clip-path: url(#clippath);
      }

      .cls-8 {
        fill: #f4d400;
      }

      .cls-9 {
        fill: #349b4a;
      }
    </style>
    <clipPath id="clippath">
      <path class="cls-4" d="M388.82,168.59c-59.5-28.08-93.41-85.57-143.7-89.13-50.28-3.57-121.39,63.79-141.21,99.04-19.83,35.25-42.63,103.34-8.69,127.27,73.55,51.86,89.71-19.21,184.1-13.79,94.38,5.41,148.49,58.06,236.75,63.91,88.25,5.85,157.67-50.96,149.7-103.24-13.16-86.33-213.6-54.16-276.94-84.05Z"/>
    </clipPath>
  </defs>
  <rect class="cls-4" x="1856.13" y="104.35" width="606.91" height="130.32"/>
  <path class="cls-5" d="M1900.36,290.78c-24.94,4.72-74.69-36.43-27.62-79.87,30.7-28.34,63.93-48.21,82.77-56.27,153.02-65.45,276.72-48.94,395.04,4.16,55.54,24.92,128.31,69.01,115.77,121.78-20.54,86.48-127.67,108.17-249.94,77.37-137.02-34.51-91.62-109.67-316.03-67.18Z"/>
  <path class="cls-3" d="M1395.74,305.84c118.73-11.98,246.34,48.2,361.28,25.16,56.35-11.29,103.51-43.17,125.8-85.04,5.45-10.24,28.54-97.68-94.81-83.39-42.59,4.93-83.69,15.35-126.89,10.97-57.93-5.87-106.5-43.4-163.54-55.22-209.91-43.5-288.05,81.61-313.31,128.33-13.03,24.1-29.66,130.48,29.05,139.37,18.54,2.8,58.98-38.68,75.12-47.24,31.85-16.89,68.01-28.97,107.31-32.94"/>
  <path class="cls-8" d="M389.55,168.28c-59.63-28.16-93.61-85.79-144-89.37-50.39-3.58-121.64,63.96-141.51,99.3-19.87,35.34-42.72,103.62-8.71,127.61,73.71,52,89.9-19.26,184.49-13.83,94.58,5.43,148.81,58.21,237.25,64.08,88.44,5.87,158-51.1,150.01-103.52-13.19-86.56-214.05-54.3-277.53-84.27Z"/>
  <g class="cls-10">
    <g>
      <path class="cls-6" d="M451.56,526.51c-42.89,0-76.82-27.47-109.63-54.04-32.56-26.37-66.23-53.63-108.54-53.63s-75.98,27.27-108.54,53.63c-17.45,14.13-35.49,28.74-54.7,39.06l-.78-2.72c19.05-10.23,37.01-24.78,54.39-38.85,32.81-26.57,66.74-54.04,109.63-54.04,42.9,0,76.82,27.47,109.63,54.04,32.56,26.37,66.23,53.63,108.54,53.63,42.31,0,75.98-27.27,108.54-53.63,32.81-26.57,66.74-54.04,109.63-54.04v2.92c-42.31,0-75.98,27.27-108.54,53.63-32.81,26.57-66.74,54.04-109.63,54.04"/>
      <path class="cls-6" d="M451.56,506.93c-42.89,0-76.82-27.47-109.63-54.04-32.56-26.37-66.23-53.63-108.54-53.63-42.31,0-75.98,27.26-108.54,53.63-17.45,14.13-35.5,28.74-54.7,39.06l-.78-2.72c19.05-10.23,37.01-24.78,54.39-38.85,32.81-26.57,66.74-54.04,109.63-54.04,42.9,0,76.82,27.47,109.63,54.04,32.56,26.37,66.23,53.63,108.54,53.63,42.31,0,75.98-27.26,108.54-53.63,32.81-26.57,66.74-54.04,109.63-54.04v2.92c-42.31,0-75.98,27.26-108.54,53.63-32.81,26.57-66.74,54.04-109.63,54.04"/>
      <path class="cls-6" d="M451.56,487.35c-42.89,0-76.82-27.47-109.63-54.04-32.56-26.37-66.23-53.63-108.54-53.63-42.31,0-75.98,27.26-108.54,53.63-17.45,14.13-35.5,28.74-54.7,39.05l-.78-2.72c19.05-10.23,37.01-24.78,54.39-38.85,32.81-26.57,66.74-54.04,109.63-54.04,42.9,0,76.82,27.47,109.63,54.04,32.56,26.37,66.23,53.63,108.54,53.63,42.31,0,75.98-27.26,108.54-53.63,32.81-26.57,66.74-54.04,109.63-54.04v2.92c-42.31,0-75.98,27.26-108.54,53.63-32.81,26.57-66.74,54.04-109.63,54.04"/>
      <path class="cls-6" d="M451.56,467.78c-42.89,0-76.82-27.47-109.63-54.04-32.56-26.37-66.23-53.63-108.54-53.63-42.31,0-75.98,27.26-108.54,53.63-17.45,14.13-35.5,28.74-54.7,39.05l-.78-2.72c19.05-10.23,37.01-24.78,54.39-38.85,32.81-26.57,66.74-54.04,109.63-54.04,42.9,0,76.82,27.47,109.63,54.04,32.56,26.37,66.23,53.63,108.54,53.63,42.31,0,75.98-27.27,108.54-53.63,32.81-26.57,66.74-54.04,109.63-54.04v2.92c-42.31,0-75.98,27.26-108.54,53.63-32.81,26.57-66.74,54.04-109.63,54.04"/>
      <path class="cls-6" d="M451.56,448.2c-42.89,0-76.82-27.47-109.63-54.04-32.56-26.37-66.23-53.63-108.54-53.63-42.31,0-75.98,27.27-108.54,53.63-17.45,14.13-35.5,28.74-54.7,39.06l-.78-2.72c19.05-10.23,37.01-24.78,54.39-38.85,32.81-26.57,66.74-54.04,109.63-54.04,42.9,0,76.82,27.47,109.63,54.04,32.56,26.37,66.23,53.63,108.54,53.63,42.31,0,75.98-27.27,108.54-53.63,32.81-26.57,66.74-54.04,109.63-54.04v2.92c-42.31,0-75.98,27.27-108.54,53.63-32.81,26.57-66.74,54.04-109.63,54.04"/>
      <path class="cls-6" d="M451.56,428.62c-42.89,0-76.82-27.47-109.63-54.04-32.56-26.37-66.23-53.63-108.54-53.63-42.31,0-75.98,27.27-108.54,53.63-17.45,14.13-35.5,28.74-54.7,39.06l-.78-2.72c19.05-10.23,37.01-24.78,54.39-38.85,32.81-26.57,66.74-54.04,109.63-54.04,42.9,0,76.82,27.47,109.63,54.04,32.56,26.37,66.23,53.63,108.54,53.63,42.31,0,75.98-27.27,108.54-53.63,32.81-26.57,66.74-54.04,109.63-54.04v2.92c-42.31,0-75.98,27.27-108.54,53.63-32.81,26.57-66.74,54.04-109.63,54.04"/>
      <path class="cls-6" d="M451.56,409.04c-42.89,0-76.82-27.47-109.63-54.04-32.56-26.37-66.23-53.63-108.54-53.63-42.31,0-75.98,27.26-108.54,53.63-17.45,14.13-35.5,28.74-54.7,39.05l-.78-2.72c19.05-10.23,37.01-24.78,54.39-38.85,32.81-26.57,66.74-54.04,109.63-54.04,42.9,0,76.82,27.47,109.63,54.04,32.56,26.37,66.23,53.63,108.54,53.63,42.31,0,75.98-27.27,108.54-53.63,32.81-26.57,66.74-54.04,109.63-54.04v2.92c-42.31,0-75.98,27.26-108.54,53.63-32.81,26.57-66.74,54.04-109.63,54.04"/>
      <path class="cls-6" d="M451.56,389.47c-42.89,0-76.82-27.47-109.63-54.04-32.56-26.37-66.23-53.63-108.54-53.63-42.31,0-75.98,27.26-108.54,53.63-17.45,14.13-35.5,28.74-54.7,39.06l-.78-2.72c19.05-10.23,37.01-24.78,54.39-38.85,32.81-26.57,66.74-54.04,109.63-54.04s76.82,27.47,109.63,54.04c32.56,26.37,66.23,53.63,108.54,53.63,42.31,0,75.98-27.27,108.54-53.63,32.81-26.57,66.74-54.04,109.63-54.04v2.92c-42.31,0-75.98,27.27-108.54,53.63-32.81,26.57-66.74,54.04-109.63,54.04"/>
      <path class="cls-6" d="M451.56,369.89c-42.89,0-76.82-27.47-109.63-54.04-32.56-26.37-66.23-53.63-108.54-53.63-42.31,0-75.98,27.27-108.54,53.63-17.45,14.13-35.49,28.74-54.7,39.05l-.78-2.72c19.05-10.23,37.01-24.78,54.39-38.85,32.81-26.57,66.74-54.04,109.63-54.04,42.9,0,76.82,27.47,109.63,54.04,32.56,26.37,66.23,53.63,108.54,53.63,42.31,0,75.98-27.27,108.54-53.63,32.81-26.57,66.74-54.04,109.63-54.04v2.92c-42.31,0-75.98,27.27-108.54,53.63-32.81,26.57-66.74,54.04-109.63,54.04"/>
      <path class="cls-6" d="M451.56,350.31c-42.89,0-76.82-27.47-109.63-54.04-32.56-26.37-66.23-53.63-108.54-53.63-42.31,0-75.98,27.27-108.54,53.63-17.45,14.13-35.49,28.74-54.7,39.06l-.78-2.72c19.05-10.23,37.01-24.78,54.39-38.85,32.81-26.57,66.74-54.04,109.63-54.04,42.9,0,76.82,27.47,109.63,54.04,32.56,26.37,66.23,53.63,108.54,53.63,42.31,0,75.98-27.27,108.54-53.63,32.81-26.57,66.74-54.04,109.63-54.04v2.92c-42.31,0-75.98,27.27-108.54,53.63-32.81,26.57-66.74,54.04-109.63,54.04"/>
      <path class="cls-6" d="M451.56,330.74c-42.89,0-76.82-27.47-109.63-54.04-32.56-26.37-66.23-53.63-108.54-53.63-42.31,0-75.98,27.26-108.54,53.63-17.45,14.13-35.49,28.74-54.7,39.05l-.78-2.72c19.05-10.23,37.01-24.78,54.39-38.85,32.81-26.57,66.74-54.04,109.63-54.04,42.9,0,76.82,27.47,109.63,54.04,32.56,26.37,66.23,53.63,108.54,53.63,42.31,0,75.98-27.27,108.54-53.63,32.81-26.57,66.74-54.04,109.63-54.04v2.92c-42.31,0-75.98,27.27-108.54,53.63-32.81,26.57-66.74,54.04-109.63,54.04"/>
      <path class="cls-6" d="M451.56,311.16c-42.89,0-76.82-27.47-109.63-54.04-32.56-26.37-66.23-53.63-108.54-53.63-42.31,0-75.98,27.27-108.54,53.63-17.45,14.13-35.5,28.74-54.7,39.06l-.78-2.72c19.05-10.23,37.01-24.78,54.39-38.85,32.81-26.57,66.74-54.04,109.63-54.04,42.9,0,76.82,27.47,109.63,54.04,32.56,26.37,66.23,53.63,108.54,53.63,42.31,0,75.98-27.27,108.54-53.63,32.81-26.57,66.74-54.04,109.63-54.04v2.92c-42.31,0-75.98,27.27-108.54,53.63-32.81,26.57-66.74,54.04-109.63,54.04"/>
      <path class="cls-6" d="M451.56,291.58c-42.89,0-76.82-27.47-109.63-54.04-32.56-26.37-66.23-53.63-108.54-53.63-42.31,0-75.98,27.27-108.54,53.63-17.45,14.13-35.49,28.74-54.7,39.05l-.78-2.72c19.05-10.23,37.01-24.78,54.39-38.85,32.81-26.57,66.74-54.04,109.63-54.04,42.9,0,76.82,27.47,109.63,54.04,32.56,26.37,66.23,53.63,108.54,53.63,42.31,0,75.98-27.27,108.54-53.63,32.81-26.57,66.74-54.04,109.63-54.04v2.92c-42.31,0-75.98,27.27-108.54,53.63-32.81,26.57-66.74,54.04-109.63,54.04"/>
      <path class="cls-6" d="M451.56,272.01c-42.89,0-76.82-27.47-109.63-54.04-32.56-26.37-66.23-53.63-108.54-53.63-42.31,0-75.98,27.26-108.54,53.63-17.45,14.13-35.5,28.74-54.7,39.05l-.78-2.72c19.05-10.23,37.02-24.78,54.39-38.85,32.81-26.57,66.74-54.04,109.63-54.04,42.9,0,76.82,27.47,109.63,54.04,32.56,26.37,66.23,53.63,108.54,53.63,42.31,0,75.98-27.27,108.54-53.63,32.81-26.57,66.74-54.04,109.63-54.04v2.92c-42.31,0-75.98,27.27-108.54,53.63-32.81,26.57-66.74,54.04-109.63,54.04"/>
      <path class="cls-6" d="M451.56,252.43c-42.89,0-76.82-27.47-109.63-54.04-32.56-26.37-66.23-53.63-108.54-53.63-42.31,0-75.98,27.26-108.54,53.63-17.45,14.13-35.49,28.74-54.7,39.05l-.78-2.72c19.05-10.23,37.01-24.78,54.39-38.85,32.81-26.57,66.74-54.04,109.63-54.04,42.9,0,76.82,27.47,109.63,54.04,32.56,26.37,66.23,53.63,108.54,53.63s75.98-27.27,108.54-53.63c32.81-26.57,66.74-54.04,109.63-54.04v2.92c-42.31,0-75.98,27.26-108.54,53.63-32.81,26.57-66.74,54.04-109.63,54.04"/>
      <path class="cls-6" d="M451.56,232.85c-42.89,0-76.82-27.47-109.63-54.04-32.56-26.37-66.23-53.63-108.54-53.63-42.31,0-75.98,27.26-108.54,53.63-17.45,14.13-35.5,28.74-54.7,39.05l-.78-2.72c19.05-10.23,37.01-24.78,54.39-38.85,32.81-26.57,66.74-54.04,109.63-54.04,42.9,0,76.82,27.47,109.63,54.04,32.56,26.37,66.23,53.63,108.54,53.63,42.31,0,75.98-27.27,108.54-53.63,32.81-26.57,66.74-54.04,109.63-54.04v2.92c-42.31,0-75.98,27.26-108.54,53.63-32.81,26.57-66.74,54.04-109.63,54.04"/>
      <path class="cls-6" d="M451.56,213.27c-42.89,0-76.82-27.47-109.63-54.04-32.56-26.37-66.23-53.63-108.54-53.63-42.31,0-75.98,27.27-108.54,53.63-17.45,14.13-35.5,28.74-54.7,39.06l-.78-2.72c19.05-10.23,37.01-24.78,54.39-38.85,32.81-26.57,66.74-54.04,109.63-54.04,42.9,0,76.82,27.47,109.63,54.04,32.56,26.37,66.23,53.63,108.54,53.63,42.31,0,75.98-27.27,108.54-53.63,32.81-26.57,66.74-54.04,109.63-54.04v2.92c-42.31,0-75.98,27.27-108.54,53.63-32.81,26.57-66.74,54.04-109.63,54.04"/>
      <path class="cls-6" d="M451.56,193.7c-42.89,0-76.82-27.47-109.63-54.04-32.56-26.37-66.23-53.63-108.54-53.63s-75.98,27.26-108.54,53.63c-17.45,14.13-35.5,28.74-54.7,39.05l-.78-2.72c19.05-10.23,37.01-24.78,54.39-38.85,32.81-26.57,66.74-54.04,109.63-54.04,42.9,0,76.82,27.47,109.63,54.04,32.56,26.37,66.23,53.63,108.54,53.63,42.31,0,75.98-27.27,108.54-53.63,32.81-26.57,66.74-54.04,109.63-54.04v2.92c-42.31,0-75.98,27.26-108.54,53.63-32.81,26.57-66.74,54.04-109.63,54.04"/>
      <path class="cls-6" d="M451.56,174.12c-42.89,0-76.82-27.47-109.63-54.04-32.56-26.37-66.23-53.63-108.54-53.63-42.31,0-75.98,27.27-108.54,53.63-17.45,14.13-35.49,28.74-54.7,39.05l-.78-2.72c19.05-10.23,37.01-24.78,54.39-38.85,32.81-26.57,66.74-54.04,109.63-54.04,42.9,0,76.82,27.47,109.63,54.04,32.56,26.37,66.23,53.63,108.54,53.63,42.31,0,75.98-27.27,108.54-53.63,32.81-26.57,66.74-54.04,109.63-54.04v2.92c-42.31,0-75.98,27.27-108.54,53.63-32.81,26.57-66.74,54.04-109.63,54.04"/>
      <path class="cls-6" d="M451.56,154.54c-42.89,0-76.82-27.47-109.63-54.04-32.56-26.37-66.23-53.63-108.54-53.63-42.31,0-75.98,27.26-108.54,53.63-17.45,14.13-35.5,28.74-54.7,39.05l-.78-2.72c19.05-10.23,37.01-24.78,54.39-38.85,32.81-26.57,66.74-54.04,109.63-54.04,42.9,0,76.82,27.47,109.63,54.04,32.56,26.37,66.23,53.63,108.54,53.63,42.31,0,75.98-27.27,108.54-53.63,32.81-26.57,66.74-54.04,109.63-54.04v2.92c-42.31,0-75.98,27.26-108.54,53.63-32.81,26.57-66.74,54.04-109.63,54.04"/>
      <path class="cls-6" d="M451.56,134.97c-42.89,0-76.82-27.47-109.63-54.04-32.56-26.37-66.23-53.63-108.54-53.63-42.31,0-75.98,27.27-108.54,53.63-17.45,14.13-35.5,28.74-54.7,39.05l-.78-2.72c19.05-10.23,37.01-24.78,54.39-38.85,32.81-26.57,66.74-54.04,109.63-54.04,42.9,0,76.82,27.47,109.63,54.04,32.56,26.37,66.23,53.63,108.54,53.63,42.31,0,75.98-27.27,108.54-53.63,32.81-26.57,66.74-54.04,109.63-54.04v2.92c-42.31,0-75.98,27.27-108.54,53.63-32.81,26.57-66.74,54.04-109.63,54.04"/>
      <path class="cls-6" d="M451.56,115.39c-42.89,0-76.82-27.47-109.63-54.04-32.56-26.37-66.23-53.63-108.54-53.63-42.31,0-75.98,27.27-108.54,53.63-17.45,14.13-35.5,28.74-54.7,39.06l-.78-2.72c19.05-10.23,37.01-24.78,54.39-38.85C156.57,32.27,190.49,4.8,233.39,4.8c42.9,0,76.82,27.47,109.63,54.04,32.56,26.37,66.23,53.63,108.54,53.63,42.31,0,75.98-27.27,108.54-53.63,32.81-26.57,66.74-54.04,109.63-54.04v2.92c-42.31,0-75.98,27.27-108.54,53.63-32.81,26.57-66.74,54.04-109.63,54.04"/>
      <path class="cls-6" d="M451.56,95.81c-42.9,0-76.83-27.47-109.64-54.04-17.49-14.16-35.57-28.81-54.76-39.05L287.94,0c19.35,10.33,37.51,25.03,55.07,39.25,32.57,26.37,66.24,53.64,108.55,53.64,42.31,0,75.98-27.27,108.54-53.63C577.67,25.04,595.83,10.33,615.18,0l.78,2.72c-19.19,10.24-37.28,24.89-54.77,39.05-32.81,26.57-66.74,54.04-109.63,54.04"/>
      <path class="cls-6" d="M70.14,80.83l-.78-2.72c19.05-10.23,37.01-24.78,54.39-38.85,17.57-14.22,35.73-28.93,55.08-39.26l.78,2.72c-19.19,10.24-37.28,24.89-54.76,39.05-17.45,14.13-35.5,28.74-54.7,39.06"/>
      <path class="cls-6" d="M451.56,76.23c-42.9,0-76.82-27.47-109.64-54.04-8.08-6.54-16.44-13.31-24.79-19.55l1.02-2.56c8.38,6.27,16.76,13.05,24.85,19.6,32.56,26.37,66.24,53.63,108.54,53.63s75.98-27.27,108.54-53.63c8.1-6.56,16.47-13.33,24.85-19.6l1.02,2.56c-8.35,6.24-16.71,13.01-24.79,19.55-32.81,26.57-66.74,54.04-109.63,54.04"/>
      <path class="cls-6" d="M70.14,61.25l-.78-2.72c19.04-10.23,37.01-24.77,54.39-38.84,8.1-6.56,16.47-13.34,24.86-19.61l1.02,2.56c-8.35,6.24-16.71,13.01-24.79,19.55-17.45,14.13-35.49,28.74-54.7,39.05"/>
      <path class="cls-6" d="M451.56,56.66c-42.89,0-76.82-27.47-109.63-54.04l1.09-2.51c32.57,26.37,66.24,53.63,108.54,53.63,42.31,0,75.98-27.26,108.54-53.63l1.1,2.5c-32.82,26.57-66.74,54.04-109.63,54.04"/>
      <path class="cls-6" d="M70.14,41.67l-.78-2.72C88.4,28.73,106.36,14.19,123.73.13l1.12,2.49c-17.47,14.14-35.5,28.75-54.7,39.06"/>
      <path class="cls-6" d="M451.56,37.08c-34.1,0-61.99-17.41-84.78-34.44l1.03-2.56c22.55,16.85,50.14,34.08,83.75,34.08,33.61,0,61.2-17.23,83.75-34.08l1.03,2.56c-22.79,17.03-50.68,34.44-84.78,34.44"/>
      <path class="cls-6" d="M70.14,22.09l-.78-2.72c9.17-4.92,18.57-11.05,29.6-19.29l1.03,2.56c-11.11,8.31-20.59,14.49-29.84,19.45"/>
      <path class="cls-6" d="M451.56,17.5c-18.07,0-35.91-4.84-54.55-14.78L397.79,0c18.39,9.81,35.98,14.58,53.78,14.58,17.8,0,35.39-4.77,53.78-14.58l.78,2.72c-18.64,9.95-36.48,14.78-54.55,14.78"/>
    </g>
  </g>
  <path class="cls-9" d="M.92,226.84c38.14-38.39,82.04-65.67,128.02-87.28,15.25-7.23,30.69-14.58,46.29-20.72,37.55-15.18,77.58-21.93,117.1-19.53,106.27,5.61,203.87,62.94,293.68,127.61l.74-1.26c-20.45-20.58-42.26-39.22-65.05-56.11-99.5-73.83-194.48-93.94-308.97-68.01-52.78,10-105.72,27.39-151.34,62.04-22.88,16.95-44.25,37.41-61.39,62.17l.92,1.09Z"/>
  <path class="cls-2" d="M1444.42,177.14c10.29,0,10.31-15.99,0-15.99s-10.31,15.99,0,15.99h0Z"/>
  <path class="cls-2" d="M1347.44,159.34c2.57,0,2.58-4,0-4s-2.58,4,0,4h0Z"/>
  <path class="cls-2" d="M1556.68,229.87c2.57,0,2.58-4,0-4s-2.58,4,0,4h0Z"/>
  <path class="cls-2" d="M1780.26,210.57c2.57,0,2.58-4,0-4s-2.58,4,0,4h0Z"/>
  <path class="cls-2" d="M1842.54,201.41c2.57,0,2.58-4,0-4s-2.58,4,0,4h0Z"/>
  <path class="cls-2" d="M1839.45,260.62c2.57,0,2.58-4,0-4s-2.58,4,0,4h0Z"/>
  <path class="cls-2" d="M1685.3,258.51c2.57,0,2.58-4,0-4s-2.58,4,0,4h0Z"/>
  <path class="cls-2" d="M1677.16,202.36c2.57,0,2.58-4,0-4s-2.58,4,0,4h0Z"/>
  <path class="cls-2" d="M1579.14,225.8c2.57,0,2.58-4,0-4s-2.58,4,0,4h0Z"/>
  <path class="cls-2" d="M1507.72,136.95c2.57,0,2.58-4,0-4s-2.58,4,0,4h0Z"/>
  <path class="cls-2" d="M1484.2,225.76c2.57,0,2.58-4,0-4s-2.58,4,0,4h0Z"/>
  <path class="cls-2" d="M1384.15,251.23c2.57,0,2.58-4,0-4s-2.58,4,0,4h0Z"/>
  <path class="cls-2" d="M1252.46,249.14c2.57,0,2.58-4,0-4s-2.58,4,0,4h0Z"/>
  <path class="cls-2" d="M1267.79,194.02c2.57,0,2.58-4,0-4s-2.58,4,0,4h0Z"/>
  <path class="cls-2" d="M1303.51,235.89c2.57,0,2.58-4,0-4s-2.58,4,0,4h0Z"/>
  <path class="cls-2" d="M1194.26,269.53c2.57,0,2.58-4,0-4s-2.58,4,0,4h0Z"/>
  <path class="cls-2" d="M1218.78,226.66c2.57,0,2.58-4,0-4s-2.58,4,0,4h0Z"/>
  <path class="cls-2" d="M1534.24,190.05c2.57,0,2.58-4,0-4s-2.58,4,0,4h0Z"/>
  <path class="cls-2" d="M1521.96,259.46c2.57,0,2.58-4,0-4s-2.58,4,0,4h0Z"/>
  <path class="cls-2" d="M1433.14,271.67c2.57,0,2.58-4,0-4s-2.58,4,0,4h0Z"/>
  <path class="cls-2" d="M1409.69,197.14c2.57,0,2.58-4,0-4s-2.58,4,0,4h0Z"/>
  <path class="cls-2" d="M1403.6,120.57c2.57,0,2.58-4,0-4s-2.58,4,0,4h0Z"/>
  <path class="cls-2" d="M1466.89,121.62c2.57,0,2.58-4,0-4s-2.58,4,0,4h0Z"/>
  <path class="cls-2" d="M1609.79,183.95c2.57,0,2.58-4,0-4s-2.58,4,0,4h0Z"/>
  <path class="cls-2" d="M1654.69,224.81c2.57,0,2.58-4,0-4s-2.58,4,0,4h0Z"/>
  <path class="cls-2" d="M1606.69,257.45c2.57,0,2.58-4,0-4s-2.58,4,0,4h0Z"/>
  <path class="cls-2" d="M1766.96,272.84c2.57,0,2.58-4,0-4s-2.58,4,0,4h0Z"/>
  <path class="cls-2" d="M1726.15,207.48c2.57,0,2.58-4,0-4s-2.58,4,0,4h0Z"/>
  <path class="cls-2" d="M1810.9,178.94c2.57,0,2.58-4,0-4s-2.58,4,0,4h0Z"/>
  <path class="cls-2" d="M1875.2,212.65c2.57,0,2.58-4,0-4s-2.58,4,0,4h0Z"/>
  <path class="cls-2" d="M1821.08,235.09c2.57,0,2.58-4,0-4s-2.58,4,0,4h0Z"/>
  <path class="cls-2" d="M1739.41,239.14c2.57,0,2.58-4,0-4s-2.58,4,0,4h0Z"/>
  <path class="cls-2" d="M1353.54,202.22c2.57,0,2.58-4,0-4s-2.58,4,0,4h0Z"/>
  <path class="cls-2" d="M1308.65,140.95c2.57,0,2.58-4,0-4s-2.58,4,0,4h0Z"/>
  <path class="cls-2" d="M1237.17,195.02c2.57,0,2.58-4,0-4s-2.58,4,0,4h0Z"/>
  <path class="cls-2" d="M1314.72,272.64c2.57,0,2.58-4,0-4s-2.58,4,0,4h0Z"/>
  <path class="cls-2" d="M1350.46,259.39c2.57,0,2.58-4,0-4s-2.58,4,0,4h0Z"/>
  <path class="cls-2" d="M1308.63,198.12c2.57,0,2.58-4,0-4s-2.58,4,0,4h0Z"/>
  <path class="cls-2" d="M1562.79,264.5c7.72,0,7.73-11.99,0-11.99s-7.73,11.99,0,11.99h0Z"/>
  <path class="cls-2" d="M1569.98,180.79c7.72,0,7.73-11.99,0-11.99s-7.73,11.99,0,11.99h0Z"/>
  <path class="cls-2" d="M1479.09,249.15c7.72,0,7.73-11.99,0-11.99s-7.73,11.99,0,11.99h0Z"/>
  <path class="cls-2" d="M1347.41,233.78c7.72,0,7.73-11.99,0-11.99s-7.73,11.99,0,11.99h0Z"/>
  <path class="cls-2" d="M1275.93,272.54c7.72,0,7.73-11.99,0-11.99s-7.73,11.99,0,11.99h0Z"/>
  <path class="cls-2" d="M1262.68,222.51c7.72,0,7.73-11.99,0-11.99s-7.73,11.99,0,11.99h0Z"/>
  <path class="cls-2" d="M1221.83,263.33c7.72,0,7.73-11.99,0-11.99s-7.73,11.99,0,11.99h0Z"/>
  <path class="cls-2" d="M1381.12,174.58c7.72,0,7.73-11.99,0-11.99s-7.73,11.99,0,11.99h0Z"/>
  <path class="cls-2" d="M1298.43,169.44c7.72,0,7.73-11.99,0-11.99s-7.73,11.99,0,11.99h0Z"/>
  <path class="cls-2" d="M1370.93,133.74c7.72,0,7.73-11.99,0-11.99s-7.73,11.99,0,11.99h0Z"/>
  <path class="cls-2" d="M1422.95,233.81c7.72,0,7.73-11.99,0-11.99s-7.73,11.99,0,11.99h0Z"/>
  <path class="cls-2" d="M1503.61,201.18c7.72,0,7.73-11.99,0-11.99s-7.73,11.99,0,11.99h0Z"/>
  <path class="cls-2" d="M1488.32,154.21c7.72,0,7.73-11.99,0-11.99s-7.73,11.99,0,11.99h0Z"/>
  <path class="cls-2" d="M1619.98,213.48c7.72,0,7.73-11.99,0-11.99s-7.73,11.99,0,11.99h0Z"/>
  <path class="cls-2" d="M1648.55,267.6c7.72,0,7.73-11.99,0-11.99s-7.73,11.99,0,11.99h0Z"/>
  <path class="cls-2" d="M1723.07,269.67c7.72,0,7.73-11.99,0-11.99s-7.73,11.99,0,11.99h0Z"/>
  <path class="cls-2" d="M1692.46,231.88c7.72,0,7.73-11.99,0-11.99s-7.73,11.99,0,11.99h0Z"/>
  <path class="cls-2" d="M1764.96,189.04c7.72,0,7.73-11.99,0-11.99s-7.73,11.99,0,11.99h0Z"/>
  <path class="cls-2" d="M1823.14,207.44c7.72,0,7.73-11.99,0-11.99s-7.73,11.99,0,11.99h0Z"/>
  <path class="cls-2" d="M1864.98,237.06c7.72,0,7.73-11.99,0-11.99s-7.73,11.99,0,11.99h0Z"/>
  <path class="cls-2" d="M1798.61,264.6c7.72,0,7.73-11.99,0-11.99s-7.73,11.99,0,11.99h0Z"/>
  <path class="cls-2" d="M1772.08,232.94c7.72,0,7.73-11.99,0-11.99s-7.73,11.99,0,11.99h0Z"/>
  <path class="cls-2" d="M1853.77,181.93c7.72,0,7.73-11.99,0-11.99s-7.73,11.99,0,11.99h0Z"/>
  <path class="cls-2" d="M1703.07,192.06c7.72,0,7.73-11.99,0-11.99s-7.73,11.99,0,11.99h0Z"/>
  <path class="cls-2" d="M1389.25,268.16c7.72,0,7.73-11.99,0-11.99s-7.73,11.99,0,11.99h0Z"/>
  <path class="cls-2" d="M1383.83,217.11c7.72,0,7.73-11.99,0-11.99s-7.73,11.99,0,11.99h0Z"/>
  <path class="cls-2" d="M1649.98,190.67c7.72,0,7.73-11.99,0-11.99s-7.73,11.99,0,11.99h0Z"/>
  <path class="cls-2" d="M1254.52,180.98c7.72,0,7.73-11.99,0-11.99s-7.73,11.99,0,11.99h0Z"/>
  <path class="cls-2" d="M1855.51,267c7.72,0,7.73-11.99,0-11.99s-7.73,11.99,0,11.99h0Z"/>
  <path class="cls-2" d="M1431.51,137.45c10.29,0,10.31-15.99,0-15.99s-10.31,15.99,0,15.99h0Z"/>
  <path class="cls-2" d="M1306.91,225.2c10.29,0,10.31-15.99,0-15.99s-10.31,15.99,0,15.99h0Z"/>
  <path class="cls-2" d="M1528.12,236.86c10.29,0,10.31-15.99,0-15.99s-10.31,15.99,0,15.99h0Z"/>
  <path class="cls-2" d="M1530.2,157.23c10.29,0,10.31-15.99,0-15.99s-10.31,15.99,0,15.99h0Z"/>
  <path class="cls-2" d="M1806.52,231.54c10.29,0,10.31-15.99,0-15.99s-10.31,15.99,0,15.99h0Z"/>
  <path class="cls-2" d="M1458.02,220.5c10.29,0,10.31-15.99,0-15.99s-10.31,15.99,0,15.99h0Z"/>
  <path class="cls-2" d="M1458.68,279.04c10.29,0,10.31-15.99,0-15.99s-10.31,15.99,0,15.99h0Z"/>
  <path class="cls-2" d="M1611.84,245.75c10.29,0,10.31-15.99,0-15.99s-10.31,15.99,0,15.99h0Z"/>
  <path class="cls-2" d="M1731.65,229.46c10.29,0,10.31-15.99,0-15.99s-10.31,15.99,0,15.99h0Z"/>
  <path class="cls-2" d="M1342.33,184.37c10.29,0,10.31-15.99,0-15.99s-10.31,15.99,0,15.99h0Z"/>
  <path class="cls-2" d="M1220.47,229.93c10.29,0,10.31-15.99,0-15.99s-10.31,15.99,0,15.99h0Z"/>
  <path class="cls-2" d="M1413.8,158.67c2.57,0,2.58-4,0-4s-2.58,4,0,4h0Z"/>
  <path class="cls-2" d="M1475.74,179.79c2.57,0,2.58-4,0-4s-2.58,4,0,4h0Z"/>
  <path class="cls-2" d="M1564.21,209.1c2.57,0,2.58-4,0-4s-2.58,4,0,4h0Z"/>
  <path class="cls-2" d="M1675.15,239.1c2.57,0,2.58-4,0-4s-2.58,4,0,4h0Z"/>
  <path class="cls-2" d="M1759.54,262.96c2.57,0,2.58-4,0-4s-2.58,4,0,4h0Z"/>
  <path class="cls-2" d="M1745.95,195.57c2.57,0,2.58-4,0-4s-2.58,4,0,4h0Z"/>
  <path class="cls-2" d="M1792.93,173.8c2.57,0,2.58-4,0-4s-2.58,4,0,4h0Z"/>
  <path class="cls-2" d="M1871.88,192.9c2.57,0,2.58-4,0-4s-2.58,4,0,4h0Z"/>
  <path class="cls-2" d="M1341.66,137.54c2.57,0,2.58-4,0-4s-2.58,4,0,4h0Z"/>
  <path class="cls-2" d="M1291.27,190.61c2.57,0,2.58-4,0-4s-2.58,4,0,4h0Z"/>
  <path class="cls-2" d="M1276.99,155.89c2.57,0,2.58-4,0-4s-2.58,4,0,4h0Z"/>
  <path class="cls-2" d="M1249.04,262.06c2.57,0,2.58-4,0-4s-2.58,4,0,4h0Z"/>
  <path class="cls-2" d="M1198.68,247.74c2.57,0,2.58-4,0-4s-2.58,4,0,4h0Z"/>
  <path class="cls-2" d="M1283.08,247.78c2.57,0,2.58-4,0-4s-2.58,4,0,4h0Z"/>
  <path class="cls-2" d="M1286.49,215.79c2.57,0,2.58-4,0-4s-2.58,4,0,4h0Z"/>
  <path class="cls-2" d="M1325.96,249.84c2.57,0,2.58-4,0-4s-2.58,4,0,4h0Z"/>
  <path class="cls-2" d="M1337.52,271.63c2.57,0,2.58-4,0-4s-2.58,4,0,4h0Z"/>
  <path class="cls-2" d="M1391.31,231.49c2.57,0,2.58-4,0-4s-2.58,4,0,4h0Z"/>
  <path class="cls-2" d="M1413.76,251.24c2.57,0,2.58-4,0-4s-2.58,4,0,4h0Z"/>
  <path class="cls-2" d="M1451.88,244.45c2.57,0,2.58-4,0-4s-2.58,4,0,4h0Z"/>
  <path class="cls-2" d="M1432.85,196.11c2.57,0,2.58-4,0-4s-2.58,4,0,4h0Z"/>
  <path class="cls-2" d="M1460.77,151.88c2.57,0,2.58-4,0-4s-2.58,4,0,4h0Z"/>
  <path class="cls-2" d="M1544.49,171.66c2.57,0,2.58-4,0-4s-2.58,4,0,4h0Z"/>
  <path class="cls-2" d="M1569.68,156.01c2.57,0,2.58-4,0-4s-2.58,4,0,4h0Z"/>
  <path class="cls-2" d="M1596.9,164.87c2.57,0,2.58-4,0-4s-2.58,4,0,4h0Z"/>
  <path class="cls-2" d="M1588.03,205.03c2.57,0,2.58-4,0-4s-2.58,4,0,4h0Z"/>
  <path class="cls-2" d="M1609.81,219.33c2.57,0,2.58-4,0-4s-2.58,4,0,4h0Z"/>
  <path class="cls-2" d="M1584.61,249.95c2.57,0,2.58-4,0-4s-2.58,4,0,4h0Z"/>
  <path class="cls-2" d="M1592.09,268.33c2.57,0,2.58-4,0-4s-2.58,4,0,4h0Z"/>
  <path class="cls-2" d="M1548.53,273.76c2.57,0,2.58-4,0-4s-2.58,4,0,4h0Z"/>
  <path class="cls-2" d="M1537.64,253.33c2.57,0,2.58-4,0-4s-2.58,4,0,4h0Z"/>
  <path class="cls-2" d="M1492.03,271.69c2.57,0,2.58-4,0-4s-2.58,4,0,4h0Z"/>
  <path class="cls-2" d="M1507.02,241.07c2.57,0,2.58-4,0-4s-2.58,4,0,4h0Z"/>
  <path class="cls-2" d="M1675.81,271.09c2.57,0,2.58-4,0-4s-2.58,4,0,4h0Z"/>
  <path class="cls-2" d="M1641.79,242.49c2.57,0,2.58-4,0-4s-2.58,4,0,4h0Z"/>
  <path class="cls-2" d="M1641.81,209.13c2.57,0,2.58-4,0-4s-2.58,4,0,4h0Z"/>
  <path class="cls-2" d="M1632.28,190.75c2.57,0,2.58-4,0-4s-2.58,4,0,4h0Z"/>
  <path class="cls-2" d="M1686.74,186.69c2.57,0,2.58-4,0-4s-2.58,4,0,4h0Z"/>
  <path class="cls-2" d="M1710.55,212.57c2.57,0,2.58-4,0-4s-2.58,4,0,4h0Z"/>
  <path class="cls-2" d="M1717.35,241.16c2.57,0,2.58-4,0-4s-2.58,4,0,4h0Z"/>
  <path class="cls-2" d="M1703.72,272.46c2.57,0,2.58-4,0-4s-2.58,4,0,4h0Z"/>
  <path class="cls-2" d="M1702.37,247.96c2.57,0,2.58-4,0-4s-2.58,4,0,4h0Z"/>
  <path class="cls-2" d="M1771.11,251.39c2.57,0,2.58-4,0-4s-2.58,4,0,4h0Z"/>
  <path class="cls-2" d="M1743.2,255.46c2.57,0,2.58-4,0-4s-2.58,4,0,4h0Z"/>
  <path class="cls-2" d="M1742.52,271.12c2.57,0,2.58-4,0-4s-2.58,4,0,4h0Z"/>
  <path class="cls-2" d="M1824.88,270.47c2.57,0,2.58-4,0-4s-2.58,4,0,4h0Z"/>
  <path class="cls-2" d="M1841.23,234.4c2.57,0,2.58-4,0-4s-2.58,4,0,4h0Z"/>
  <path class="cls-2" d="M1854.17,211.95c2.57,0,2.58-4,0-4s-2.58,4,0,4h0Z"/>
  <path class="cls-2" d="M1830.36,180.63c2.57,0,2.58-4,0-4s-2.58,4,0,4h0Z"/>
  <path class="cls-2" d="M1797.68,194.23c2.57,0,2.58-4,0-4s-2.58,4,0,4h0Z"/>
  <path class="cls-2" d="M1792.22,240.51c2.57,0,2.58-4,0-4s-2.58,4,0,4h0Z"/>
  <path class="cls-2" d="M1875.26,248.03c2.57,0,2.58-4,0-4s-2.58,4,0,4h0Z"/>
  <path class="cls-2" d="M1831.73,168.38c2.57,0,2.58-4,0-4s-2.58,4,0,4h0Z"/>
  <path class="cls-2" d="M1630.21,267.67c2.57,0,2.58-4,0-4s-2.58,4,0,4h0Z"/>
  <path class="cls-2" d="M1507.05,175.04c2.57,0,2.58-4,0-4s-2.58,4,0,4h0Z"/>
  <path class="cls-2" d="M1454.65,132.14c2.57,0,2.58-4,0-4s-2.58,4,0,4h0Z"/>
  <path class="cls-2" d="M1321.9,183.13c2.57,0,2.58-4,0-4s-2.58,4,0,4h0Z"/>
  <path class="cls-2" d="M1336.19,207.64c2.57,0,2.58-4,0-4s-2.58,4,0,4h0Z"/>
  <path class="cls-2" d="M1302.13,259.36c2.57,0,2.58-4,0-4s-2.58,4,0,4h0Z"/>
  <path class="cls-2" d="M1240.89,219.85c2.57,0,2.58-4,0-4s-2.58,4,0,4h0Z"/>
  <path class="cls-2" d="M1222.5,242.99c2.57,0,2.58-4,0-4s-2.58,4,0,4h0Z"/>
  <path class="cls-2" d="M1221.84,202.83c2.57,0,2.58-4,0-4s-2.58,4,0,4h0Z"/>
  <path class="cls-2" d="M1393.39,139.6c2.57,0,2.58-4,0-4s-2.58,4,0,4h0Z"/>
  <path class="cls-2" d="M1476.41,199.53c2.57,0,2.58-4,0-4s-2.58,4,0,4h0Z"/>
  <path class="cls-2" d="M1509.07,217.93c2.57,0,2.58-4,0-4s-2.58,4,0,4h0Z"/>
  <path class="cls-2" d="M1551.28,211.82c2.57,0,2.58-4,0-4s-2.58,4,0,4h0Z"/>
  <g>
    <path class="cls-1" d="M685.61,163.42c18.53-18.75,48.39-30.01,71.64-19.85,19.13,8.36,28.91,28.31,45,41.01,33.78,26.67,86.74,16.11,128.59-2.88,41.85-18.99,82.51-45.63,127.82-48.42,63.3-3.9,118.92,44.67,130.12,103.2,11.19,58.53-16.52,122.09-61.91,166.72-45.39,44.63-106.33,72.2-168.23,88.52-33.47,8.83-68.87,14.65-101.54,6.88-28.73-6.82-53.13-23.65-74.79-42.22-70.52-60.45-187.07-201.51-96.71-292.95"/>
    <path class="cls-3" d="M652.18,334.74c-27.25-38.93-49.45-85.62-42.63-134.25,6.06-47.42,51.29-100.66,104.46-87.12,22.65,6.36,33.89,27.37,48.47,42.7,21.76,23.42,56.99,26.16,87.27,19.59,42.37-8.38,77.14-34.19,116.22-51.4,40-19.19,88.26-25.15,128.89-3.76,40.09,19.68,69.44,58.78,77.03,102.05,11.07,63.98-20.61,130.25-67.98,172.77l-.97-.94c41.48-46.32,67.92-108.41,55.89-169.41-9.8-47.37-47.44-88.46-95.05-101.71-53.47-14.35-104.01,15.7-151.72,36.78-46.73,21.15-111.55,38.79-153.57-.06-14.88-13.54-26.62-33.02-47.04-37.55-51.37-8.97-91.89,49.08-92.53,94.61-1.39,25.12,5.31,50.9,14.49,74.58,5.49,14.64,12.63,28.53,19.95,42.42l-1.17.71"/>
  </g>
  <path class="cls-7" d="M1858.43,197.75c137.07-123.98,324.02-142.57,497.8-63.1,37.16,17.17,71.56,38.19,102.35,63.1-37.34-36.58-84.57-65.74-135.93-86.61-165.75-67.41-349.11-37.78-464.21,86.61"/>
</svg>