<?xml version="1.0" encoding="UTF-8"?><svg id="Capa_2" xmlns="http://www.w3.org/2000/svg" xmlns:xlink="http://www.w3.org/1999/xlink" viewBox="0 0 2405.79 433.93"><defs><style>.cls-1{clip-path:url(#clippath);}.cls-2{fill:none;}.cls-2,.cls-3,.cls-4,.cls-5,.cls-6,.cls-7,.cls-8{stroke-width:0px;}.cls-9{clip-path:url(#clippath-1);}.cls-10{clip-path:url(#clippath-3);}.cls-11{clip-path:url(#clippath-2);}.cls-3{fill:#ce564a;}.cls-4{fill:#439e4e;}.cls-12{opacity:.53;}.cls-5{fill:#72b32c;}.cls-6{fill:#c28cbc;}.cls-7{fill:#ebd006;}.cls-8{fill:#814091;}</style><clipPath id="clippath"><path class="cls-2" d="M2252.53,433.66c55.16,2.57,109.19-33.45,136.37-110.38,40.11-113.55,5.97-195.5-73.99-206.23-81.06-10.88-91.7,39.64-160.17,37.08-68.47-2.56-127.17-137.14-310.11-130.71-128.47,4.52-122.85,85.04-335.78,67.57-123.99-10.17-189.41,131.26-154.88,206.59,26.08,56.9,98.48,110.68,164.34,94.82,26.19-6.31,87.62-38.49,114.8-59.3,64.7-49.53,145.78-51.24,205.78-45.09,158.14,16.21,310.1,140.83,413.65,145.65Z"/></clipPath><clipPath id="clippath-1"><path class="cls-2" d="M252.3,50.57c10.88-1.83,22.08-2.96,33.17-3.66,146.61-9.21,266.9,45.98,346.23,107.16,37.6,29,84.95,85.78,92.22,93.59,25.72,27.63,45.25,68.87,18.2,95.25-20.79,20.28-58.19,20.13-89.87,15.6-118.06-16.9-230.77-71.56-349.65-61.13-53.87,4.73-104.5,22.69-154.1,40.64-32.46,11.74-69.5,23.65-102.22,11.99C1.54,334.08-8.02,282.96,5.94,244.26c3.03-8.4,21.03-51.18,37.43-73.04,36.54-48.72,84.44-86.16,166.44-111.67l42.49-8.98Z"/></clipPath><clipPath id="clippath-2"><rect class="cls-2" x="-207.48" y="-428.47" width="877.02" height="1825.63" transform="translate(-258.06 705.16) rotate(-88.8)"/></clipPath><clipPath id="clippath-3"><rect class="cls-2" x="-207.48" y="-428.47" width="877.02" height="1825.63" transform="translate(-258.06 705.15) rotate(-88.8)"/></clipPath></defs><g id="CONTACTO"><path class="cls-7" d="M1554.62,298.98c133.7-124.85.13-151.37-54.88-179.83C1319.91,26.13,1045.21-25.27,847.85,12.49c-192.29,36.79-235.61,130.55-287.17,157.91-100.76,53.48,284.96,351.14,474.69,148.4,0,0,385.55,105.02,519.24-19.83Z"/><path class="cls-6" d="M2252.57,433.8c55.16,2.57,109.19-33.45,136.37-110.38,40.11-113.55,5.97-195.5-73.99-206.23-81.06-10.88-91.7,39.64-160.17,37.08-68.47-2.56-127.17-137.14-310.11-130.71-128.47,4.52-122.85,85.04-335.78,67.57-123.99-10.17-189.41,131.26-154.88,206.59,26.08,56.9,98.48,110.68,164.34,94.82,26.19-6.31,87.62-38.49,114.8-59.3,64.7-49.53,145.78-51.24,205.78-45.09,158.14,16.21,310.1,140.83,413.65,145.65Z"/><g class="cls-1"><path class="cls-8" d="M1725.97-116.68c77.79-1.44,140.21,45.09,200.57,90.08,59.9,44.66,121.85,90.84,198.58,89.42,76.73-1.42,136.92-49.87,195.13-96.72,31.19-25.11,63.45-51.07,97.94-69.61l1.51,4.69c-34.21,18.39-66.33,44.24-97.4,69.24-58.65,47.2-119.3,96.02-197.09,97.46-77.79,1.44-140.21-45.09-200.57-90.08-59.9-44.66-121.85-90.84-198.58-89.42-76.73,1.42-136.92,49.87-195.13,96.72-58.65,47.2-119.3,96.02-197.09,97.46l-.09-5.06c76.73-1.42,136.92-49.87,195.13-96.72,58.65-47.2,119.29-96.02,197.09-97.46"/><path class="cls-8" d="M1726.61-82.71c77.79-1.44,140.21,45.09,200.57,90.08,59.9,44.66,121.85,90.84,198.58,89.41,76.73-1.42,136.92-49.87,195.12-96.71,31.19-25.11,63.45-51.07,97.95-69.61l1.51,4.69c-34.22,18.39-66.34,44.24-97.4,69.24-58.65,47.21-119.29,96.02-197.09,97.46-77.79,1.44-140.21-45.09-200.57-90.08-59.9-44.66-121.85-90.84-198.58-89.41-76.73,1.42-136.92,49.87-195.13,96.72-58.65,47.21-119.3,96.02-197.09,97.46l-.09-5.06c76.73-1.42,136.92-49.87,195.13-96.72,58.65-47.2,119.29-96.02,197.09-97.46"/><path class="cls-8" d="M1727.24-48.74c77.79-1.44,140.21,45.09,200.57,90.08,59.9,44.66,121.85,90.84,198.58,89.41,76.73-1.42,136.92-49.87,195.12-96.71,31.2-25.11,63.45-51.07,97.95-69.61l1.51,4.69c-34.21,18.39-66.33,44.24-97.4,69.24-58.65,47.2-119.3,96.02-197.09,97.46s-140.21-45.09-200.57-90.08c-59.9-44.66-121.85-90.84-198.58-89.41-76.73,1.42-136.92,49.87-195.13,96.72-58.65,47.21-119.3,96.02-197.09,97.46l-.09-5.06c76.73-1.42,136.92-49.87,195.13-96.72,58.65-47.2,119.29-96.02,197.09-97.46"/><path class="cls-8" d="M1727.87-14.77c77.79-1.44,140.21,45.09,200.57,90.08,59.9,44.66,121.85,90.84,198.58,89.41,76.73-1.42,136.92-49.87,195.12-96.71,31.2-25.11,63.45-51.07,97.95-69.61l1.51,4.69c-34.21,18.39-66.33,44.24-97.4,69.24-58.65,47.2-119.3,96.02-197.09,97.46-77.79,1.44-140.21-45.09-200.57-90.08-59.9-44.66-121.85-90.84-198.58-89.41-76.73,1.42-136.92,49.87-195.13,96.72-58.65,47.21-119.3,96.02-197.09,97.46l-.09-5.06c76.73-1.42,136.92-49.87,195.13-96.72,58.65-47.21,119.29-96.02,197.09-97.46"/><path class="cls-8" d="M1728.5,19.21c77.79-1.44,140.21,45.09,200.57,90.09,59.9,44.66,121.85,90.84,198.58,89.41,76.73-1.42,136.92-49.87,195.12-96.72,31.2-25.1,63.45-51.07,97.95-69.61l1.51,4.69c-34.21,18.39-66.33,44.24-97.4,69.24-58.65,47.21-119.3,96.02-197.09,97.46-77.79,1.44-140.21-45.09-200.57-90.09-59.9-44.66-121.85-90.84-198.58-89.41-76.73,1.42-136.92,49.87-195.13,96.72-58.65,47.21-119.3,96.02-197.09,97.47l-.09-5.06c76.73-1.42,136.92-49.87,195.13-96.72,58.65-47.21,119.29-96.02,197.09-97.47"/><path class="cls-8" d="M1729.13,53.18c77.79-1.44,140.21,45.09,200.57,90.09,59.9,44.66,121.85,90.84,198.58,89.41,76.73-1.42,136.92-49.87,195.12-96.71,31.2-25.11,63.45-51.07,97.95-69.61l1.51,4.69c-34.21,18.39-66.33,44.24-97.4,69.24-58.65,47.21-119.29,96.02-197.09,97.46s-140.21-45.09-200.57-90.08c-59.9-44.66-121.85-90.84-198.58-89.42-76.73,1.42-136.92,49.87-195.13,96.72-58.65,47.21-119.3,96.02-197.09,97.46l-.09-5.06c76.73-1.42,136.92-49.87,195.13-96.72,58.65-47.21,119.29-96.02,197.09-97.47"/><path class="cls-8" d="M1729.76,87.15c77.79-1.44,140.21,45.09,200.57,90.08,59.9,44.66,121.85,90.84,198.58,89.41,76.73-1.42,136.92-49.87,195.12-96.71,31.2-25.11,63.45-51.07,97.95-69.61l1.51,4.69c-34.21,18.39-66.33,44.24-97.4,69.24-58.65,47.2-119.3,96.02-197.09,97.46-77.79,1.44-140.21-45.09-200.57-90.08-59.9-44.66-121.85-90.84-198.58-89.41-76.73,1.42-136.92,49.87-195.13,96.72-58.65,47.21-119.3,96.02-197.09,97.46l-.09-5.06c76.73-1.42,136.92-49.87,195.13-96.72,58.65-47.21,119.29-96.02,197.09-97.46"/><path class="cls-8" d="M1730.39,121.12c77.79-1.44,140.21,45.09,200.57,90.09,59.9,44.66,121.85,90.84,198.58,89.41,76.73-1.42,136.92-49.87,195.12-96.72,31.2-25.1,63.45-51.07,97.95-69.61l1.51,4.69c-34.21,18.39-66.33,44.24-97.4,69.24-58.65,47.21-119.3,96.02-197.09,97.46-77.79,1.44-140.21-45.09-200.57-90.09-59.9-44.66-121.85-90.84-198.58-89.41-76.73,1.42-136.92,49.87-195.13,96.72-58.65,47.21-119.3,96.02-197.09,97.47l-.09-5.06c76.73-1.42,136.92-49.87,195.13-96.72,58.65-47.21,119.29-96.02,197.09-97.47"/><path class="cls-8" d="M1731.02,155.09c77.79-1.44,140.21,45.09,200.57,90.09,59.9,44.66,121.85,90.84,198.58,89.41,76.73-1.42,136.92-49.87,195.13-96.72,31.19-25.11,63.45-51.07,97.95-69.61l1.51,4.69c-34.21,18.39-66.33,44.24-97.4,69.24-58.65,47.2-119.3,96.02-197.09,97.46-77.79,1.44-140.21-45.09-200.57-90.09-59.9-44.66-121.85-90.84-198.58-89.41-76.73,1.42-136.92,49.87-195.13,96.72-58.65,47.21-119.3,96.02-197.09,97.47l-.09-5.06c76.73-1.42,136.92-49.87,195.13-96.72,58.65-47.21,119.29-96.02,197.09-97.47"/><path class="cls-8" d="M1731.65,189.06c77.79-1.44,140.21,45.09,200.57,90.09,59.9,44.66,121.85,90.84,198.58,89.41,76.73-1.42,136.92-49.87,195.13-96.72,31.19-25.11,63.45-51.07,97.94-69.61l1.51,4.69c-34.21,18.39-66.33,44.24-97.4,69.24-58.65,47.21-119.3,96.02-197.09,97.47-77.79,1.44-140.21-45.09-200.57-90.09-59.9-44.66-121.85-90.84-198.58-89.41-76.73,1.42-136.92,49.87-195.13,96.72-58.65,47.21-119.3,96.02-197.09,97.47l-.09-5.06c76.73-1.42,136.92-49.87,195.13-96.72,58.65-47.21,119.29-96.02,197.09-97.47"/><path class="cls-8" d="M1732.28,223.03c77.79-1.44,140.21,45.09,200.57,90.08,59.9,44.66,121.85,90.84,198.58,89.41,76.73-1.42,136.92-49.87,195.13-96.71,31.19-25.1,63.45-51.07,97.95-69.61l1.51,4.69c-34.21,18.39-66.33,44.24-97.4,69.24-58.65,47.2-119.3,96.02-197.09,97.46-77.79,1.44-140.21-45.09-200.57-90.08-59.9-44.66-121.85-90.84-198.58-89.41-76.73,1.42-136.92,49.87-195.13,96.72-58.65,47.21-119.3,96.02-197.09,97.46l-.09-5.06c76.73-1.42,136.92-49.87,195.13-96.72,58.65-47.21,119.29-96.02,197.09-97.46"/><path class="cls-8" d="M1732.91,257c77.79-1.44,140.21,45.09,200.57,90.09,59.9,44.66,121.85,90.84,198.58,89.41,76.73-1.42,136.92-49.87,195.12-96.72,31.2-25.1,63.45-51.07,97.95-69.61l1.51,4.69c-34.21,18.39-66.33,44.24-97.4,69.24-58.65,47.21-119.3,96.02-197.09,97.46-77.79,1.44-140.21-45.09-200.57-90.09-59.9-44.66-121.85-90.84-198.58-89.41-76.73,1.42-136.92,49.87-195.13,96.72-58.65,47.21-119.3,96.02-197.09,97.47l-.09-5.06c76.73-1.42,136.92-49.87,195.13-96.72,58.65-47.21,119.29-96.02,197.09-97.47"/><path class="cls-8" d="M1733.54,290.97c77.79-1.44,140.21,45.09,200.57,90.09,59.9,44.66,121.85,90.84,198.58,89.41,76.73-1.42,136.92-49.87,195.13-96.72,31.19-25.11,63.45-51.07,97.95-69.61l1.51,4.69c-34.21,18.39-66.33,44.24-97.4,69.24-58.65,47.2-119.3,96.02-197.09,97.46-77.79,1.44-140.21-45.09-200.57-90.09-59.9-44.66-121.85-90.84-198.58-89.41-76.73,1.42-136.92,49.87-195.13,96.72-58.65,47.21-119.3,96.02-197.09,97.47l-.09-5.06c76.73-1.42,136.92-49.87,195.13-96.72,58.65-47.21,119.29-96.02,197.09-97.47"/><path class="cls-8" d="M1734.17,324.94c77.79-1.44,140.21,45.09,200.57,90.09,59.9,44.66,121.85,90.84,198.58,89.41,76.73-1.42,136.91-49.87,195.12-96.71,31.19-25.11,63.45-51.07,97.95-69.61l1.51,4.69c-34.21,18.39-66.34,44.24-97.4,69.24-58.65,47.2-119.29,96.02-197.09,97.46-77.79,1.44-140.21-45.09-200.57-90.09-59.9-44.66-121.85-90.84-198.58-89.41-76.73,1.42-136.92,49.87-195.13,96.72-58.65,47.21-119.3,96.02-197.09,97.47l-.09-5.06c76.73-1.42,136.92-49.87,195.13-96.72,58.65-47.21,119.29-96.02,197.09-97.47"/><path class="cls-8" d="M1734.8,358.91c77.79-1.44,140.21,45.09,200.57,90.08,59.9,44.66,121.85,90.84,198.58,89.41,76.73-1.42,136.92-49.87,195.13-96.72,31.19-25.1,63.45-51.07,97.95-69.61l1.51,4.68c-34.21,18.39-66.33,44.24-97.4,69.24-58.65,47.21-119.29,96.02-197.09,97.46-77.79,1.44-140.21-45.09-200.57-90.08-59.9-44.66-121.85-90.84-198.58-89.41-76.73,1.42-136.92,49.87-195.13,96.72-58.65,47.21-119.3,96.02-197.09,97.46l-.09-5.06c76.73-1.42,136.92-49.87,195.13-96.72,58.65-47.21,119.29-96.02,197.09-97.46"/><path class="cls-8" d="M1735.43,392.89c77.79-1.44,140.21,45.09,200.57,90.08,59.9,44.66,121.85,90.84,198.58,89.41,76.73-1.42,136.92-49.87,195.12-96.71,31.2-25.11,63.45-51.07,97.95-69.61l1.51,4.69c-34.21,18.39-66.33,44.24-97.4,69.24-58.65,47.2-119.3,96.02-197.09,97.46-77.79,1.44-140.21-45.09-200.57-90.08-59.9-44.66-121.85-90.84-198.58-89.41-76.73,1.42-136.92,49.87-195.13,96.72-58.65,47.21-119.3,96.02-197.09,97.46l-.09-5.06c76.73-1.42,136.92-49.87,195.13-96.72,58.65-47.21,119.29-96.02,197.09-97.46"/><path class="cls-8" d="M1736.06,426.86c77.79-1.44,140.21,45.09,200.57,90.09,59.9,44.66,121.85,90.84,198.58,89.41,76.73-1.42,136.92-49.87,195.12-96.72,31.2-25.11,63.45-51.07,97.95-69.61l1.51,4.69c-34.22,18.39-66.33,44.24-97.4,69.24-58.65,47.2-119.29,96.02-197.09,97.46-77.79,1.44-140.21-45.09-200.57-90.09-59.9-44.66-121.85-90.84-198.58-89.41-76.73,1.42-136.92,49.87-195.13,96.72-58.65,47.21-119.3,96.02-197.09,97.47l-.09-5.06c76.73-1.42,136.92-49.87,195.13-96.72,58.65-47.21,119.29-96.02,197.09-97.47"/></g><path class="cls-3" d="M930.68,365.49l93.24,12.7c99.4,13.53,210.88-19.82,250-77.2,9.6-14.08,14.52-28.53,13.32-42.28l30.43-106.53c-1.69-19.18,14.39-64.29-206.92-24.53-181.46,32.6-231.12,66.4-273.56,124.32-18.82,25.68-16.67,53.63,5.35,75.99h0c18.65,18.94,50.16,32.37,88.15,37.54Z"/><path class="cls-4" d="M724.25,247.71c25.68,28.05,45.18,69.92,18.15,96.73-20.78,20.61-58.15,20.47-89.8,15.88-117.96-17.12-230.56-72.6-349.35-61.96-53.83,4.82-104.43,23.08-154,41.32-32.44,11.94-69.45,24.04-102.14,12.21C2.42,335.72-7.12,283.81,6.84,244.5c2.26-6.37,6.1-16.1,11.07-27.93C61.77,112.1,183.52,43.2,319.28,46.05h0c138.39,2.91,268.46,56.54,353.57,146.13,22.99,24.2,41.64,44.87,51.4,55.53"/><g class="cls-9"><g class="cls-12"><g class="cls-11"><g class="cls-10"><path class="cls-5" d="M229.29,588.7c102.37,2.15,184.15-34.43,263.23-69.81,78.48-35.11,159.65-71.42,260.62-69.3s180.54,41.8,257.48,80.18c41.23,20.57,83.88,41.83,129.41,57.17l1.95-3.74c-45.16-15.21-87.62-36.39-128.68-56.87-77.53-38.67-157.7-78.66-260.07-80.81-102.37-2.15-184.15,34.43-263.23,69.81-78.48,35.11-159.65,71.42-260.62,69.3-100.97-2.12-180.54-41.81-257.48-80.18-77.53-38.67-157.7-78.66-260.07-80.81l-.09,4.07c100.98,2.12,180.54,41.81,257.48,80.18,77.53,38.67,157.7,78.65,260.07,80.81"/><path class="cls-5" d="M229.86,561.41c102.37,2.15,184.15-34.43,263.23-69.81,78.48-35.11,159.65-71.42,260.62-69.3,100.97,2.12,180.54,41.81,257.48,80.18,41.23,20.57,83.87,41.83,129.4,57.17l1.95-3.74c-45.16-15.21-87.62-36.39-128.68-56.87-77.53-38.67-157.7-78.66-260.07-80.81-102.37-2.15-184.15,34.43-263.23,69.81-78.48,35.11-159.65,71.42-260.62,69.3-100.97-2.12-180.54-41.81-257.48-80.18-77.53-38.67-157.7-78.65-260.07-80.81l-.09,4.07c100.98,2.12,180.54,41.81,257.48,80.18,77.53,38.67,157.7,78.65,260.07,80.81"/><path class="cls-5" d="M230.43,534.13c102.37,2.15,184.15-34.43,263.23-69.81,78.48-35.11,159.65-71.42,260.62-69.3,100.97,2.12,180.54,41.81,257.48,80.18,41.23,20.57,83.87,41.83,129.4,57.17l1.95-3.75c-45.16-15.21-87.62-36.39-128.68-56.87-77.53-38.67-157.7-78.65-260.07-80.8-102.37-2.15-184.15,34.43-263.23,69.81-78.48,35.11-159.65,71.42-260.62,69.3-100.97-2.12-180.54-41.81-257.48-80.18-77.53-38.67-157.7-78.65-260.07-80.81l-.09,4.07c100.98,2.12,180.54,41.81,257.48,80.18,77.53,38.67,157.7,78.65,260.07,80.81"/><path class="cls-5" d="M231.01,506.85c102.37,2.15,184.15-34.43,263.23-69.81,78.48-35.11,159.65-71.42,260.62-69.3,100.97,2.12,180.54,41.8,257.48,80.18,41.23,20.56,83.87,41.83,129.4,57.17l1.95-3.75c-45.16-15.21-87.62-36.38-128.68-56.86-77.53-38.67-157.7-78.66-260.07-80.81-102.37-2.15-184.15,34.44-263.23,69.82-78.48,35.11-159.65,71.42-260.62,69.3-100.97-2.12-180.54-41.81-257.48-80.18-77.53-38.67-157.7-78.66-260.07-80.81l-.09,4.07c100.98,2.12,180.54,41.8,257.48,80.18,77.53,38.67,157.7,78.65,260.07,80.81"/><path class="cls-5" d="M231.58,479.57c102.37,2.15,184.15-34.43,263.23-69.81,78.48-35.11,159.65-71.42,260.62-69.3,100.97,2.12,180.54,41.8,257.48,80.18,41.23,20.57,83.88,41.83,129.41,57.17l1.95-3.74c-45.16-15.21-87.62-36.39-128.68-56.87-77.53-38.67-157.7-78.66-260.07-80.81-102.37-2.15-184.15,34.43-263.23,69.82-78.48,35.11-159.65,71.42-260.62,69.3-100.97-2.12-180.54-41.81-257.48-80.18-77.53-38.67-157.7-78.66-260.07-80.81l-.09,4.07c100.98,2.12,180.54,41.81,257.48,80.18,77.53,38.67,157.7,78.65,260.07,80.81"/><path class="cls-5" d="M232.15,452.28c102.37,2.15,184.15-34.43,263.23-69.81,78.48-35.11,159.65-71.42,260.62-69.3,100.97,2.12,180.54,41.81,257.48,80.18,41.23,20.57,83.87,41.83,129.4,57.17l1.95-3.74c-45.16-15.21-87.62-36.39-128.68-56.87-77.53-38.67-157.7-78.66-260.07-80.81-102.37-2.15-184.15,34.43-263.23,69.82-78.48,35.11-159.65,71.42-260.62,69.3-100.97-2.12-180.54-41.81-257.48-80.18-77.53-38.67-157.7-78.66-260.07-80.81l-.09,4.07c100.98,2.12,180.54,41.81,257.48,80.18,77.53,38.67,157.7,78.65,260.07,80.81"/><path class="cls-5" d="M232.73,425c102.37,2.15,184.15-34.43,263.23-69.81,78.48-35.11,159.65-71.42,260.62-69.3,100.97,2.12,180.53,41.8,257.48,80.18,41.23,20.57,83.87,41.83,129.41,57.17l1.95-3.75c-45.16-15.21-87.62-36.39-128.68-56.87-77.53-38.67-157.69-78.65-260.06-80.8-102.37-2.15-184.15,34.43-263.23,69.81-78.48,35.11-159.65,71.42-260.62,69.3-100.97-2.12-180.54-41.81-257.48-80.18-77.53-38.67-157.7-78.66-260.07-80.81l-.09,4.07c100.98,2.12,180.54,41.81,257.48,80.18,77.53,38.67,157.7,78.65,260.07,80.81"/><path class="cls-5" d="M233.3,397.72c102.37,2.15,184.15-34.43,263.23-69.81,78.48-35.11,159.65-71.42,260.62-69.3,100.97,2.12,180.54,41.81,257.48,80.18,41.23,20.57,83.87,41.83,129.4,57.17l1.95-3.74c-45.16-15.21-87.62-36.39-128.68-56.87-77.53-38.67-157.7-78.66-260.07-80.81-102.37-2.15-184.15,34.44-263.23,69.81-78.48,35.11-159.65,71.42-260.62,69.3-100.97-2.12-180.54-41.81-257.48-80.18-77.53-38.67-157.7-78.66-260.07-80.81l-.09,4.07c100.98,2.12,180.54,41.81,257.48,80.18,77.53,38.67,157.7,78.65,260.07,80.81"/><path class="cls-5" d="M233.87,370.44c102.37,2.15,184.15-34.43,263.23-69.81,78.48-35.11,159.65-71.42,260.62-69.3,100.97,2.12,180.54,41.8,257.48,80.18,41.23,20.57,83.88,41.83,129.41,57.17l1.95-3.74c-45.16-15.21-87.62-36.39-128.68-56.87-77.53-38.67-157.7-78.65-260.07-80.8-102.37-2.15-184.15,34.44-263.23,69.81-78.48,35.11-159.65,71.42-260.62,69.3-100.97-2.12-180.54-41.81-257.48-80.18-77.53-38.67-157.7-78.65-260.07-80.81l-.09,4.07c100.98,2.12,180.54,41.8,257.48,80.18,77.53,38.67,157.7,78.65,260.07,80.81"/><path class="cls-5" d="M234.45,343.16c102.37,2.15,184.15-34.43,263.23-69.81,78.48-35.11,159.65-71.42,260.62-69.3,100.97,2.12,180.54,41.81,257.48,80.18,41.23,20.57,83.88,41.83,129.41,57.17l1.95-3.74c-45.16-15.21-87.62-36.39-128.68-56.87-77.53-38.67-157.7-78.66-260.07-80.81-102.37-2.15-184.15,34.43-263.23,69.82-78.48,35.11-159.65,71.42-260.62,69.3-100.97-2.12-180.54-41.81-257.48-80.18-77.53-38.67-157.7-78.66-260.07-80.81l-.09,4.07c100.98,2.12,180.54,41.81,257.48,80.18,77.53,38.67,157.7,78.65,260.07,80.81"/><path class="cls-5" d="M235.02,315.87c102.37,2.15,184.15-34.43,263.23-69.81,78.48-35.11,159.65-71.42,260.62-69.3,100.97,2.12,180.54,41.8,257.48,80.18,41.23,20.57,83.88,41.83,129.41,57.17l1.95-3.75c-45.16-15.21-87.62-36.39-128.68-56.87-77.53-38.67-157.7-78.65-260.07-80.8-102.37-2.15-184.15,34.44-263.23,69.82-78.48,35.11-159.65,71.42-260.62,69.3-100.97-2.12-180.54-41.81-257.48-80.18-77.53-38.67-157.7-78.66-260.07-80.81l-.09,4.07c100.98,2.12,180.54,41.8,257.48,80.18,77.53,38.67,157.7,78.65,260.07,80.81"/><path class="cls-5" d="M235.59,288.59c102.37,2.15,184.15-34.43,263.23-69.81,78.48-35.11,159.65-71.42,260.62-69.3,100.97,2.12,180.54,41.81,257.48,80.18,41.23,20.57,83.87,41.83,129.4,57.17l1.95-3.74c-45.16-15.21-87.62-36.39-128.68-56.87-77.53-38.67-157.7-78.66-260.07-80.81-102.37-2.15-184.15,34.43-263.23,69.82-78.48,35.11-159.65,71.42-260.62,69.3-100.97-2.12-180.54-41.81-257.48-80.18-77.53-38.67-157.7-78.66-260.07-80.81l-.09,4.07c100.98,2.12,180.54,41.81,257.48,80.18,77.53,38.67,157.7,78.65,260.07,80.81"/><path class="cls-5" d="M236.16,261.31c102.37,2.15,184.15-34.43,263.23-69.81,78.48-35.11,159.65-71.42,260.62-69.3,100.97,2.12,180.54,41.8,257.48,80.18,41.23,20.57,83.88,41.83,129.41,57.17l1.95-3.74c-45.16-15.21-87.62-36.39-128.68-56.87-77.53-38.67-157.7-78.66-260.07-80.81-102.37-2.15-184.15,34.44-263.23,69.81-78.48,35.11-159.65,71.42-260.62,69.3-100.97-2.12-180.54-41.81-257.48-80.18-77.53-38.67-157.7-78.66-260.07-80.81l-.09,4.07c100.98,2.12,180.54,41.8,257.48,80.18,77.53,38.67,157.7,78.65,260.07,80.81"/><path class="cls-5" d="M236.74,234.03c102.37,2.15,184.15-34.44,263.23-69.81,78.48-35.12,159.65-71.42,260.62-69.3,100.97,2.12,180.54,41.8,257.48,80.18,41.23,20.57,83.88,41.83,129.41,57.17l1.95-3.75c-45.16-15.21-87.62-36.38-128.68-56.86-77.53-38.67-157.7-78.66-260.07-80.81-102.37-2.15-184.15,34.43-263.23,69.81-78.48,35.11-159.65,71.42-260.62,69.3-100.97-2.12-180.54-41.81-257.48-80.18-77.53-38.67-157.7-78.66-260.07-80.81l-.09,4.07c100.98,2.12,180.54,41.8,257.48,80.18,77.53,38.67,157.7,78.65,260.07,80.81"/><path class="cls-5" d="M237.31,206.74c102.37,2.15,184.15-34.43,263.23-69.81,78.48-35.11,159.65-71.42,260.62-69.3,100.97,2.12,180.54,41.8,257.48,80.18,41.23,20.57,83.88,41.83,129.41,57.17l1.95-3.74c-45.16-15.21-87.62-36.39-128.68-56.87-77.53-38.67-157.7-78.65-260.07-80.8-102.37-2.15-184.15,34.43-263.23,69.82-78.48,35.11-159.65,71.42-260.62,69.3-100.97-2.12-180.54-41.81-257.48-80.18C-97.61,83.82-177.78,43.84-280.15,41.69l-.09,4.07c100.98,2.12,180.54,41.81,257.48,80.18,77.53,38.67,157.7,78.65,260.07,80.81"/><path class="cls-5" d="M237.88,179.46c102.38,2.15,184.16-34.44,263.24-69.82,42.16-18.86,85.75-38.36,131.84-51.67l-1.78-3.83c-46.48,13.42-90.26,33.01-132.59,51.95-78.49,35.12-159.66,71.43-260.63,69.31-100.97-2.12-180.54-41.81-257.48-80.18-41.5-20.7-84.42-42.11-130.3-57.47l-1.94,3.75c45.5,15.23,88.24,36.55,129.57,57.17,77.53,38.67,157.7,78.65,260.07,80.81"/><path class="cls-5" d="M1148.62,177.7l1.95-3.75c-45.16-15.21-87.62-36.39-128.68-56.87-41.5-20.7-84.42-42.11-130.3-57.47l-1.93,3.75c45.49,15.23,88.23,36.55,129.56,57.17,41.24,20.57,83.88,41.83,129.41,57.17"/><path class="cls-5" d="M238.46,152.18c102.37,2.15,184.15-34.44,263.24-69.82,19.48-8.72,39.62-17.73,59.73-26l-2.37-3.62c-20.19,8.31-40.37,17.34-59.89,26.07-78.49,35.11-159.65,71.42-260.62,69.3-100.97-2.12-180.54-41.81-257.48-80.18-19.13-9.54-38.91-19.41-58.74-28.56l-2.52,3.52c19.75,9.11,39.5,18.97,58.59,28.49,77.53,38.67,157.7,78.66,260.07,80.81"/><path class="cls-5" d="M1149.19,150.41l1.95-3.75c-45.15-15.21-87.61-36.38-128.67-56.86-19.13-9.54-38.92-19.41-58.76-28.57l-2.52,3.52c19.75,9.12,39.5,18.97,58.6,28.5,41.23,20.56,83.86,41.83,129.39,57.16"/><path class="cls-5" d="M239.03,124.9c102.37,2.15,184.15-34.44,263.23-69.82l-2.52-3.55c-78.49,35.11-159.66,71.42-260.62,69.3-100.97-2.12-180.53-41.8-257.47-80.18l-2.69,3.44C56.5,82.77,136.66,122.75,239.03,124.9"/><path class="cls-5" d="M1149.77,123.13l1.95-3.75c-45.13-15.2-87.57-36.36-128.61-56.83l-2.74,3.41c41.28,20.59,83.89,41.84,129.4,57.17"/><path class="cls-5" d="M239.6,97.61c81.38,1.71,148.45-21.15,203.34-43.74l-2.37-3.62c-54.31,22.35-120.66,44.98-200.88,43.3-80.23-1.69-145.56-27.08-198.89-51.69l-2.52,3.52c53.89,24.88,119.95,50.53,201.33,52.24"/><path class="cls-5" d="M1150.34,95.85l1.95-3.75c-21.73-7.31-44-16.33-70.08-28.37l-2.52,3.51c26.27,12.13,48.72,21.22,70.65,28.61"/><path class="cls-5" d="M240.18,70.33c43.13.91,85.86-4.94,130.63-17.87l-1.78-3.83c-44.17,12.75-86.29,18.52-128.77,17.63-42.48-.89-84.32-8.42-127.92-23.02l-1.93,3.75c44.19,14.79,86.64,22.43,129.76,23.33"/></g></g></g></g></g></svg>